PathFileType	4	(X/Y/Z)	C:/Users/beibeiliu/ov580/test_trc/User1\sequence.16_training_dense_right.trc
DataRate	CameraRate	NumFrames	NumMarkers	Units	OrigDataRate	OrigDataStartFrame	OrigNumFrames
120	120	16	19	mm	120	1	268
Frame#	Time	ThumbCMC			ThumbMCP			ThumbIP			ThumbTip			IndexMCP			IndexPIP			IndexTip			MiddleMCP			MiddlePIP			MiddleTip			RingMCP			RingPIP			RingTip			PinkyMCP			PinkyPIP			PinkyTip			BackHand1			BackHand2			BackHand3	
		X0	Y0	Z0	X1	Y1	Z1	X2	Y2	Z2	X3	Y3	Z3	X4	Y4	Z4	X5	Y5	Z5	X6	Y6	Z6	X7	Y7	Z7	X8	Y8	Z8	X9	Y9	Z9	X10	Y10	Z10	X11	Y11	Z11	X12	Y12	Z12	X13	Y13	Z13	X14	Y14	Z14	X15	Y15	Z15	X16	Y16	Z16	X17	Y17	Z17	X18	Y18	Z18	
0	0	118.26	49.1963	56.5132	90.853	32.6268	49.293	71.4383	20.5053	34.1242	54.0769	11.62	27.1992	130.634	35.2255	-26.6915	129.721	30.0576	-54.9904	128.239	28.6953	-75.9891	162.943	39.7111	-34.7578	161.722	34.6196	-62.4802	169.451	28.8236	-91.8071	184.74	36.7706	-26.5498	190.288	34.5958	-53.9284	198.509	30.2667	-78.8721	209.474	25.7873	-3.91876	223.31	22.3864	-16.56	236.807	26.9691	-30.6094	179.416	54.723	21.1073	179.277	72.7767	51.5661	145.317	64.6713	35.591	
1	0.00833333	115.365	47.7054	51.4886	95.0195	31.8649	48.6506	72.3391	19.5802	31.9968	52.7993	12.585	30.9877	130.897	34.9534	-27.2736	128.048	32.1558	-55.326	132.879	29.0937	-80.6971	159.15	39.6362	-34.7306	161.489	34.4987	-67.3989	169.125	29.227	-94.7709	182.637	36.8181	-29.8036	194.133	34.8053	-51.0617	197.058	29.9449	-79.3662	208.593	25.3964	-4.04642	224.491	22.0767	-17.894	236.55	25.3255	-36.57	179.073	54.0985	20.6595	179.564	71.5039	50.7686	144.534	64.5763	31.5475	
2	0.0166667	115.367	50.0478	55.9545	94.9263	30.9155	46.0104	71.7831	20.4815	33.0548	54.8771	12.3599	27.9224	131.793	35.6935	-28.2622	127.882	32.7852	-52.1873	134.013	29.7542	-78.0485	160.18	39.9299	-40.2732	161.622	35.3465	-67.5086	170.131	29.2012	-96.6707	185.88	37.4623	-28.4389	190.696	34.9554	-52.124	198.36	29.4669	-78.4597	210.008	26.7201	-5.92911	223.78	21.7055	-16.1042	235.554	25.4256	-33.5825	180.452	54.3786	19.0729	183.076	71.7459	47.417	147.121	65.9648	32.3014	
3	0.025	114.322	49.3484	53.0492	93.8632	32.8347	48.6287	72.2338	20.4786	31.1259	52.7825	12.8181	28.2333	129.995	36.3123	-26.798	128.483	32.353	-56.6423	135.51	30.0286	-79.7902	164.569	40.6268	-37.9058	166.492	35.2823	-68.1882	173.216	28.6305	-94.5136	184.973	38.888	-30.3023	193.328	36.0848	-56.0494	197.961	29.3194	-79.4735	209.739	27.0481	-4.83049	222.106	22.0808	-15.305	239.853	25.3855	-35.6565	178.016	56.1134	18.3842	182.171	70.6921	50.7139	143.841	64.0286	29.32	
4	0.0333333	113.497	49.8747	51.8574	95.1172	32.5219	47.3774	72.9727	21.5818	32.5934	53.6199	12.5197	27.2078	132.001	36.7103	-30.477	128.55	33.5614	-53.3331	135.94	29.6498	-78.7785	160	41.5784	-34.8775	164.815	35.3399	-68.0149	170.305	30.2279	-93.0273	184.24	38.4182	-25.2272	191.048	36.0895	-56.8313	198.812	31.0598	-80.7599	210.152	27.5539	-1.55048	225.546	23.0059	-18.8672	240.411	24.8195	-35.7654	179.065	56.6907	21.9366	185.243	72.9458	50.1587	149.621	65.7061	33.0502	
5	0.0416667	114.45	49.1775	51.2429	97.0282	31.7496	46.4865	76.8617	21.4839	35.7872	56.7924	12.8186	29.3017	129.402	36.9455	-28.6033	133.103	33.7074	-55.7602	130.158	31.2462	-81.7966	162.825	42.0167	-34.7551	167.015	37.3132	-64.2124	169.664	30.9599	-91.3036	184.106	39.1575	-28.7895	193.878	37.7565	-52.9283	196.418	31.3038	-76.8311	213.315	27.4534	-3.80057	222.135	23.9934	-16.854	242.073	27.94	-35.4111	183.72	55.5245	19.8128	182.878	71.1761	48.1925	149.566	64.7905	29.5928	
6	0.05	117.281	49.569	51.7478	94.3509	34.4681	48.4069	71.8227	23.1519	34.9255	54.27	13.9845	31.7243	131.14	37.8044	-29.0637	128.202	34.9271	-56.371	135.799	31.4462	-80.9304	160.438	43.0076	-36.5712	164.726	37.5769	-64.8468	170.524	31.3444	-93.5055	188.464	40.6122	-28.3347	195.207	38.2984	-53.2582	200.076	32.7939	-76.6277	209.906	28.8124	-3.24852	227.027	24.0697	-16.8298	242.23	28.4169	-36.2858	180.473	58.2779	21.738	180.99	72.4515	50.1365	147.725	65.1441	30.2282	
7	0.0583333	117.166	51.1724	55.8492	95.2031	34.2303	47.9089	74.0574	23.1852	35.2219	54.1245	14.5572	29.5846	129.58	38.6982	-29.4119	131.699	34.1101	-58.0928	133.546	32.0845	-83.5028	163.225	42.2132	-38.1072	165.465	37.4282	-66.3521	174.096	32.0852	-97.2926	189.656	39.9257	-28.9039	196.729	38.3095	-54.5197	197.413	33.3862	-77.3213	210.217	29.9056	-2.09158	223.027	25.4623	-15.9617	241.165	30.7834	-33.7607	180.392	58.0358	17.2344	182.226	74.029	51.4888	145.972	66.99	32.7873	
8	0.0666667	119.676	49.4244	50.7845	95.9206	34.3037	48.0773	77.3458	23.4089	35.4137	56.4638	14.9725	31.0804	132.3	38.1378	-30.6791	130.875	35.6368	-56.4552	135.441	32.2377	-78.8583	164.317	43.3738	-36.8163	167.142	37.6119	-68.4939	171.062	32.6546	-91.6227	186.29	41.425	-25.5467	193.474	38.7301	-52.2632	200.148	33.8967	-80.0275	212.873	30.6828	-2.99414	224.488	25.8128	-18.8405	241.251	29.7402	-31.3429	185.271	58.9733	18.8372	185.992	72.9889	48.691	150.201	66.7171	33.7065	
9	0.075	118.381	52.4388	54.9177	96.2155	33.6697	47.3029	76.8828	24.1712	35.2103	56.1353	16.1515	29.0039	135.002	39.3412	-30.9898	129.981	35.4962	-53.1649	134.911	32.2286	-81.996	161.893	44.8629	-39.9125	167.181	39.0966	-68.5288	170.696	34.5603	-92.9536	188.243	42.3408	-25.7851	193.574	39.5619	-52.6077	199.697	34.1774	-78.629	215.592	31.365	-2.27569	225.976	27.2517	-17.8141	238.927	32.1378	-35.6484	180.877	57.9591	21.8413	186.257	72.5021	47.8832	152.473	69.2861	33.5838	
10	0.0833333	121.118	51.6661	51.082	94.5581	34.6222	45.0899	74.3175	23.6857	34.5104	56.7052	15.0049	27.456	133.43	40.8135	-27.7185	130.5	36.5623	-57.7698	138.42	34.045	-79.9568	165.122	44.9659	-39.1745	170.036	41.1704	-65.0202	173.857	34.6521	-93.5631	191.254	43.2022	-29.5238	196.337	41.0352	-53.6039	201.728	35.0366	-78.6072	216.755	31.403	-2.41517	226.368	27.9784	-18.3063	242.417	33.4382	-37.9113	181.829	59.71	22.9714	185.424	75.9169	50.9723	152.093	67.6627	34.3962	
11	0.0916667	120.711	52.6804	55.2318	100.713	34.2955	44.6278	74.9026	23.1671	30.1696	54.7273	16.1931	26.27	132.216	41.6452	-30.7656	133.352	38.6364	-57.8277	136.38	35.32	-83.4859	162.701	46.6579	-36.7854	168.946	42.5547	-67.493	171.012	36.6804	-95.16	190.751	44.9256	-29.5229	197.697	41.9525	-53.9192	201.311	35.497	-81.5016	214.633	32.7484	-8.46609	229.542	30.0686	-20.6873	243.624	34.5073	-36.0401	184.654	59.5274	17.6835	185.448	74.8427	49.677	148.581	67.2187	30.3723	
12	0.1	118.32	53.3083	54.345	99.4827	35.1143	44.3027	78.3826	25.275	33.4579	58.334	18.4612	27.6563	131.208	44.7231	-33.4161	133.348	40.7539	-57.9316	132.978	37.6166	-79.5369	162.652	49.3549	-42.1854	170.712	43.4264	-70.1315	173.881	37.5349	-95.7898	189.392	46.9182	-31.453	199.066	44.3574	-57.6916	199.193	39.2698	-82.2124	216.604	35.6806	-7.47742	226.868	32.5423	-21.4609	240.866	37.2943	-38.9471	182.677	63.323	18.4245	185.216	74.5845	49.4362	148.971	71.4721	33.5378	
13	0.108333	122.379	52.267	51.0048	98.4974	35.1936	43.5965	79.0714	26.5376	29.8701	59.3521	19.7978	27.5417	135.138	45.6928	-31.1522	134.393	43.1113	-58.1676	134.119	41.1364	-85.5321	167.321	51.7802	-37.914	169.899	46.8375	-66.8851	174.886	39.9184	-98.8476	192.249	49.3418	-32.5864	192.689	46.9486	-57.0569	200.452	42.0448	-79.361	216.2	38.4493	-4.55142	229.381	35.0661	-22.4135	238.009	40.8787	-38.4745	182.54	64.2989	21.6905	185.54	75.5076	48.5174	148.429	72.2509	33.9686	
14	0.116667	120.369	52.4467	51.6686	96.1285	37.1535	46.25	77.9088	27.9303	29.83	55.3078	21.5754	22.472	131.921	48.6625	-34.986	133.827	44.5743	-60.8348	132.715	42.6509	-83.2237	162.532	53.5354	-40.341	169.662	49.5514	-66.5053	172.865	42.4139	-98.2561	192.122	52.0542	-31.2428	195.782	50.5015	-60.5498	199.184	44.5073	-85.1165	214.493	40.8588	-6.12215	228.882	40.0299	-18.5495	241.507	46.8921	-40.2912	185.645	65.2478	20.697	183.339	77.2062	51.1753	149.201	70.3718	31.5168	
15	0.125	118.481	54.0927	51.654	97.8148	37.7102	43.975	76.9046	30.148	30.184	58.6328	23.3281	23.5577	130.817	51.3683	-34.1844	130.136	46.8181	-61.0201	130.812	45.0284	-83.9252	163.463	56.3187	-42.5987	164.794	51.4859	-71.2046	169.51	45.6398	-97.1416	186.958	55.4211	-33.1867	197.442	54.5499	-56.1464	200.787	48.0835	-83.7728	215.015	44.387	-7.17065	227.678	43.0688	-20.3389	239.443	51.4925	-39.3998	186.521	68.903	22.039	187.004	78.7337	49.8505	149.551	72.5746	35.8441	
